<?xml version="1.0" encoding="utf-8"?>
<!-- Generator: Adobe Illustrator 24.1.2, SVG Export Plug-In . SVG Version: 6.00 Build 0)  -->
<svg version="1.1" id="Capa_1" xmlns="http://www.w3.org/2000/svg" xmlns:xlink="http://www.w3.org/1999/xlink" x="0px" y="0px"
	 viewBox="0 0 300 100" style="enable-background:new 0 0 300 100;" xml:space="preserve">
<style type="text/css">
	.st0{fill:#016C98;stroke:#FFFFFF;stroke-width:0.25;stroke-miterlimit:10;}
	.st1{fill:#016C98;}
	.st2{fill:#35A8E0;stroke:#D9D9D9;stroke-width:0.25;stroke-miterlimit:10;}
	.st3{fill:#1D70B7;stroke:#D9D9D9;stroke-miterlimit:10;}
	.st4{fill:url(#SVGID_1_);stroke:#D9D9D9;stroke-width:0.25;stroke-miterlimit:10;}
	.st5{fill:url(#SVGID_2_);stroke:#D9D9D9;stroke-miterlimit:10;}
	.st6{fill:url(#SVGID_3_);stroke:#D9D9D9;stroke-miterlimit:10;}
	.st7{fill:#F18A49;stroke:#D9D9D9;stroke-miterlimit:10;}
	.st8{fill:#FFFFFF;}
	.st9{font-family:'MicrosoftPhagsPa';}
	.st10{font-size:34.7027px;}
	.st11{font-size:13.97px;}
</style>
<g>
	
		<rect x="45.97" y="16.93" transform="matrix(0.8442 0.5361 -0.5361 0.8442 17.9027 -26.0965)" class="st0" width="15.74" height="1.62"/>
	
		<rect x="11.31" y="26.99" transform="matrix(-0.8483 0.5294 -0.5294 -0.8483 50.1804 41.2354)" class="st0" width="15.74" height="1.62"/>
	
		<rect x="27.79" y="16.71" transform="matrix(-0.8483 0.5294 -0.5294 -0.8483 75.1926 13.5039)" class="st1" width="15.74" height="1.62"/>
	
		<rect x="9.92" y="54.11" transform="matrix(-0.8083 0.5888 -0.5888 -0.8083 64.5034 88.8456)" class="st0" width="15.74" height="1.62"/>
	
		<rect x="27.21" y="67.75" transform="matrix(-0.8083 0.5888 -0.5888 -0.8083 103.805 103.3142)" class="st0" width="15.74" height="1.62"/>
	
		<rect x="45.63" y="79.52" transform="matrix(-0.8942 0.4478 -0.4478 -0.8942 136.6263 128.3685)" class="st0" width="15.03" height="1.62"/>
	
		<rect x="26.26" y="40.41" transform="matrix(-0.792 0.6105 -0.6105 -0.792 87.7345 52.5638)" class="st0" width="17.31" height="1.62"/>
	
		<rect x="44.74" y="54.31" transform="matrix(-0.792 0.6105 -0.6105 -0.792 129.3308 66.175)" class="st0" width="17.31" height="1.62"/>
	
		<rect x="61.18" y="39.78" transform="matrix(-0.6837 0.7298 -0.7298 -0.6837 147.205 17.3767)" class="st0" width="17.31" height="1.62"/>
	<rect x="45.1" y="27.21" transform="matrix(-0.866 0.5 -0.5 -0.866 114.3225 25.4191)" class="st0" width="17.31" height="1.62"/>
	
		<rect x="61.18" y="68.3" transform="matrix(-0.792 0.6105 -0.6105 -0.792 167.3433 81.22)" class="st0" width="17.31" height="1.62"/>
	
		<rect x="27.79" y="27.75" transform="matrix(0.8442 0.5361 -0.5361 0.8442 20.8682 -14.6676)" class="st0" width="15.74" height="1.62"/>
	
		<rect x="10.3" y="39.69" transform="matrix(0.7397 0.6729 -0.6729 0.7397 31.9844 -1.6859)" class="st0" width="15.74" height="1.62"/>
	
		<rect x="9.32" y="68.53" transform="matrix(0.7397 0.6729 -0.6729 0.7397 51.1356 6.4806)" class="st0" width="15.74" height="1.62"/>
	
		<rect x="-1.65" y="46.34" transform="matrix(-1.836970e-16 1 -1 -1.836970e-16 56.6452 37.6608)" class="st0" width="22.28" height="1.62"/>
	
		<rect x="66.83" y="45.86" transform="matrix(-1.836970e-16 1 -1 -1.836970e-16 126.1525 -32.814)" class="st0" width="25.31" height="1.62"/>
	
		<rect x="31.22" y="46.34" transform="matrix(-1.836970e-16 1 -1 -1.836970e-16 91.034 3.2721)" class="st0" width="25.31" height="1.62"/>
	
		<rect x="34.49" y="72.35" transform="matrix(-1.836970e-16 1 -1 -1.836970e-16 117.4549 29.0199)" class="st0" width="19.46" height="1.77"/>
	
		<rect x="31.66" y="21.3" transform="matrix(-1.836970e-16 1 -1 -1.836970e-16 66.4172 -22.2068)" class="st0" width="25.31" height="1.62"/>
	
		<rect x="13.54" y="61.27" transform="matrix(-1.836970e-16 1 -1 -1.836970e-16 88.2774 35.8794)" class="st0" width="25.31" height="1.62"/>
	
		<rect x="13.9" y="35.2" transform="matrix(-1.836970e-16 1 -1 -1.836970e-16 62.5761 9.4531)" class="st0" width="25.31" height="1.62"/>
	
		<rect x="48.79" y="61.83" transform="matrix(-1.836970e-16 1 -1 -1.836970e-16 124.0833 1.1884)" class="st0" width="25.31" height="1.62"/>
	
		<rect x="49.47" y="33.95" transform="matrix(-1.836970e-16 1 -1 -1.836970e-16 96.884 -27.3599)" class="st0" width="25.31" height="1.62"/>
	
		<rect x="62.87" y="26.99" transform="matrix(0.8442 0.5361 -0.5361 0.8442 25.9298 -33.5895)" class="st0" width="15.74" height="1.62"/>
	
		<rect x="44.01" y="40.92" transform="matrix(0.7835 0.6214 -0.6214 0.7835 37.3391 -23.8927)" class="st0" width="17.9" height="1.43"/>
	
		<rect x="27.04" y="54.31" transform="matrix(0.8026 0.5965 -0.5965 0.8026 39.7672 -9.9467)" class="st0" width="15.74" height="1.62"/>
	
		<rect x="63.07" y="54.79" transform="matrix(0.8026 0.5965 -0.5965 0.8026 47.1656 -31.3386)" class="st0" width="15.74" height="1.62"/>
	
		<rect x="26.99" y="79.67" transform="matrix(0.889 0.4579 -0.4579 0.889 40.7167 -7.0282)" class="st0" width="15.74" height="1.62"/>
	
		<rect x="45.14" y="68.3" transform="matrix(0.7609 0.6489 -0.6489 0.7609 57.5211 -17.8724)" class="st0" width="15.74" height="1.62"/>
	<g>
		<g>
			<circle class="st2" cx="62.46" cy="22.9" r="3.91"/>
		</g>
		<circle class="st3" cx="62.43" cy="22.9" r="1.49"/>
	</g>
	<g>
		<g>
			<circle class="st2" cx="44.65" cy="11.91" r="3.91"/>
		</g>
		<circle class="st3" cx="44.62" cy="11.91" r="1.49"/>
	</g>
	<g>
		<g>
			<circle class="st2" cx="27.04" cy="22.9" r="3.91"/>
		</g>
		<circle class="st3" cx="27.01" cy="22.9" r="1.49"/>
	</g>
	<g>
		<g>
			<circle class="st2" cx="78.69" cy="33.37" r="3.91"/>
		</g>
		<circle class="st3" cx="78.66" cy="33.37" r="1.49"/>
	</g>
	<g>
		<g>
			<circle class="st2" cx="78.11" cy="62.08" r="3.91"/>
		</g>
		<circle class="st3" cx="78.08" cy="62.08" r="1.49"/>
	</g>
	<g>
		<radialGradient id="SVGID_1_" cx="44.2572" cy="61.8738" r="3.9109" gradientUnits="userSpaceOnUse">
			<stop  offset="0" style="stop-color:#FFFFFF"/>
			<stop  offset="0.0851" style="stop-color:#FFEDD8"/>
			<stop  offset="0.2082" style="stop-color:#FFD5A7"/>
			<stop  offset="0.3345" style="stop-color:#FFC17D"/>
			<stop  offset="0.462" style="stop-color:#FFB05B"/>
			<stop  offset="0.591" style="stop-color:#FFA340"/>
			<stop  offset="0.7222" style="stop-color:#FF9A2D"/>
			<stop  offset="0.8568" style="stop-color:#FF9522"/>
			<stop  offset="1" style="stop-color:#FF931E"/>
		</radialGradient>
		<circle class="st4" cx="44.26" cy="61.87" r="3.91"/>
	</g>
	<radialGradient id="SVGID_2_" cx="44.2283" cy="61.8738" r="1.4933" gradientUnits="userSpaceOnUse">
		<stop  offset="0" style="stop-color:#2580C3"/>
		<stop  offset="0.0481" style="stop-color:#38918F;stop-opacity:0.9972"/>
		<stop  offset="0.1152" style="stop-color:#50A64C;stop-opacity:0.9932"/>
		<stop  offset="0.1467" style="stop-color:#59AF31;stop-opacity:0.9914"/>
		<stop  offset="0.1505" style="stop-color:#54AA40;stop-opacity:0.9907"/>
		<stop  offset="0.162" style="stop-color:#459D68;stop-opacity:0.9889"/>
		<stop  offset="0.1739" style="stop-color:#3A9389;stop-opacity:0.987"/>
		<stop  offset="0.1861" style="stop-color:#318AA2;stop-opacity:0.9851"/>
		<stop  offset="0.1986" style="stop-color:#2A85B5;stop-opacity:0.9831"/>
		<stop  offset="0.2117" style="stop-color:#2681BF;stop-opacity:0.981"/>
		<stop  offset="0.2265" style="stop-color:#2580C3;stop-opacity:0.9786"/>
		<stop  offset="0.4972" style="stop-color:#8CBD22;stop-opacity:0.9996"/>
		<stop  offset="0.6018" style="stop-color:#8ABC25;stop-opacity:0.7914"/>
		<stop  offset="0.6813" style="stop-color:#84B82F;stop-opacity:0.6335"/>
		<stop  offset="0.7524" style="stop-color:#79B23F;stop-opacity:0.4921"/>
		<stop  offset="0.8187" style="stop-color:#6BA956;stop-opacity:0.3604"/>
		<stop  offset="0.8816" style="stop-color:#589E74;stop-opacity:0.2353"/>
		<stop  offset="0.9411" style="stop-color:#419097;stop-opacity:0.117"/>
		<stop  offset="0.9985" style="stop-color:#2680C2;stop-opacity:2.971470e-03"/>
		<stop  offset="1" style="stop-color:#2580C3;stop-opacity:0"/>
	</radialGradient>
	<circle class="st5" cx="44.23" cy="61.87" r="1.49"/>
	<g>
		<g>
			<circle class="st2" cx="44.29" cy="33.37" r="3.91"/>
		</g>
		<radialGradient id="SVGID_3_" cx="44.2921" cy="33.3695" r="1.4933" gradientUnits="userSpaceOnUse">
			<stop  offset="0" style="stop-color:#2580C3"/>
			<stop  offset="0.0481" style="stop-color:#38918F;stop-opacity:0.9972"/>
			<stop  offset="0.1152" style="stop-color:#50A64C;stop-opacity:0.9932"/>
			<stop  offset="0.1467" style="stop-color:#59AF31;stop-opacity:0.9914"/>
			<stop  offset="0.1505" style="stop-color:#54AA40;stop-opacity:0.9907"/>
			<stop  offset="0.162" style="stop-color:#459D68;stop-opacity:0.9889"/>
			<stop  offset="0.1739" style="stop-color:#3A9389;stop-opacity:0.987"/>
			<stop  offset="0.1861" style="stop-color:#318AA2;stop-opacity:0.9851"/>
			<stop  offset="0.1986" style="stop-color:#2A85B5;stop-opacity:0.9831"/>
			<stop  offset="0.2117" style="stop-color:#2681BF;stop-opacity:0.981"/>
			<stop  offset="0.2265" style="stop-color:#2580C3;stop-opacity:0.9786"/>
			<stop  offset="0.4972" style="stop-color:#8CBD22;stop-opacity:0.9996"/>
			<stop  offset="0.6018" style="stop-color:#8ABC25;stop-opacity:0.7914"/>
			<stop  offset="0.6813" style="stop-color:#84B82F;stop-opacity:0.6335"/>
			<stop  offset="0.7524" style="stop-color:#79B23F;stop-opacity:0.4921"/>
			<stop  offset="0.8187" style="stop-color:#6BA956;stop-opacity:0.3604"/>
			<stop  offset="0.8816" style="stop-color:#589E74;stop-opacity:0.2353"/>
			<stop  offset="0.9411" style="stop-color:#419097;stop-opacity:0.117"/>
			<stop  offset="0.9985" style="stop-color:#2680C2;stop-opacity:2.971470e-03"/>
			<stop  offset="1" style="stop-color:#2580C3;stop-opacity:0"/>
		</radialGradient>
		<circle class="st6" cx="44.29" cy="33.37" r="1.49"/>
	</g>
	<g>
		<g>
			<circle class="st2" cx="61.45" cy="75.74" r="3.91"/>
		</g>
		<circle class="st3" cx="61.42" cy="75.74" r="1.49"/>
	</g>
	<g>
		<g>
			<circle class="st2" cx="43.76" cy="84.39" r="3.91"/>
		</g>
		<circle class="st3" cx="43.73" cy="84.39" r="1.49"/>
	</g>
	<g>
		<g>
			<circle class="st2" cx="26.2" cy="75.74" r="3.91"/>
		</g>
		<circle class="st3" cx="26.17" cy="75.74" r="1.49"/>
	</g>
	<g>
		<g>
			<circle class="st2" cx="9.13" cy="61.75" r="3.91"/>
		</g>
		<circle class="st3" cx="9.1" cy="61.75" r="1.49"/>
	</g>
	<g>
		<g>
			<circle class="st2" cx="25.94" cy="48.45" r="3.91"/>
		</g>
		<circle class="st7" cx="25.91" cy="48.45" r="1.49"/>
	</g>
	<g>
		<g>
			<circle class="st2" cx="62.12" cy="48.45" r="3.91"/>
		</g>
		<circle class="st7" cx="62.09" cy="48.45" r="1.49"/>
	</g>
	<g>
		<g>
			<circle class="st2" cx="10.31" cy="33.37" r="3.91"/>
		</g>
		<circle class="st3" cx="10.29" cy="33.37" r="1.49"/>
	</g>
</g>
<text transform="matrix(1 0 0 1 91.1509 51.8525)" class="st8 st9 st10">IronMesh IoT</text>
<text transform="matrix(1 0 0 1 93.6216 71.6689)" class="st8 st9 st11">V I V I E N D O  E L  F U T U R O</text>
</svg>
